# Blender v3.6.4 OBJ File: 'hex.blend'
# www.blender.org
mtllib hex.mtl
o Hex_Plane.002
v -0.160000 0.000000 0.000000
v -0.080000 0.000000 -0.138564
v 0.080000 0.000000 -0.138564
v 0.160000 0.000000 0.000000
v -0.080000 0.000000 0.138564
v 0.080000 0.000000 0.138564
v 0.080000 0.000000 0.138564
vt 0.000000 0.000000
vt 0.000000 0.000000
vt 0.000000 0.000000
vt 0.000000 0.000000
vt 0.000000 0.000000
vt 0.000000 0.000000
vn 0.0000 1.0000 0.0000
usemtl None
s off
f 5/1/1 7/2/1 4/3/1 3/4/1 2/5/1 1/6/1
l 5 6
l 6 7
